<svg id="visual" viewBox="0 0 960 540" width="960" height="540" xmlns="http://www.w3.org/2000/svg" xmlns:xlink="http://www.w3.org/1999/xlink" version="1.1"><path d="M0 136L14.5 135.2C29 134.3 58 132.7 87.2 145.3C116.3 158 145.7 185 174.8 186.7C204 188.3 233 164.7 262 151.2C291 137.7 320 134.3 349 140.7C378 147 407 163 436.2 177.3C465.3 191.7 494.7 204.3 523.8 201.7C553 199 582 181 611 172C640 163 669 163 698 167.5C727 172 756 181 785.2 183.7C814.3 186.3 843.7 182.7 872.8 176.3C902 170 931 161 945.5 156.5L960 152L960 0L945.5 0C931 0 902 0 872.8 0C843.7 0 814.3 0 785.2 0C756 0 727 0 698 0C669 0 640 0 611 0C582 0 553 0 523.8 0C494.7 0 465.3 0 436.2 0C407 0 378 0 349 0C320 0 291 0 262 0C233 0 204 0 174.8 0C145.7 0 116.3 0 87.2 0C58 0 29 0 14.5 0L0 0Z" fill="#82b4b9"></path><path d="M0 309L14.5 313.5C29 318 58 327 87.2 336.8C116.3 346.7 145.7 357.3 174.8 356.3C204 355.3 233 342.7 262 332.8C291 323 320 316 349 326C378 336 407 363 436.2 370.2C465.3 377.3 494.7 364.7 523.8 354.7C553 344.7 582 337.3 611 333.7C640 330 669 330 698 332.8C727 335.7 756 341.3 785.2 345.8C814.3 350.3 843.7 353.7 872.8 357.2C902 360.7 931 364.3 945.5 366.2L960 368L960 150L945.5 154.5C931 159 902 168 872.8 174.3C843.7 180.7 814.3 184.3 785.2 181.7C756 179 727 170 698 165.5C669 161 640 161 611 170C582 179 553 197 523.8 199.7C494.7 202.3 465.3 189.7 436.2 175.3C407 161 378 145 349 138.7C320 132.3 291 135.7 262 149.2C233 162.7 204 186.3 174.8 184.7C145.7 183 116.3 156 87.2 143.3C58 130.7 29 132.3 14.5 133.2L0 134Z" fill="#b3cdcf"></path><path d="M0 444L14.5 450.3C29 456.7 58 469.3 87.2 472.8C116.3 476.3 145.7 470.7 174.8 466.2C204 461.7 233 458.3 262 453C291 447.7 320 440.3 349 444.8C378 449.3 407 465.7 436.2 470.2C465.3 474.7 494.7 467.3 523.8 460C553 452.7 582 445.3 611 440.8C640 436.3 669 434.7 698 438.3C727 442 756 451 785.2 457.3C814.3 463.7 843.7 467.3 872.8 470C902 472.7 931 474.3 945.5 475.2L960 476L960 366L945.5 364.2C931 362.3 902 358.7 872.8 355.2C843.7 351.7 814.3 348.3 785.2 343.8C756 339.3 727 333.7 698 330.8C669 328 640 328 611 331.7C582 335.3 553 342.7 523.8 352.7C494.7 362.7 465.3 375.3 436.2 368.2C407 361 378 334 349 324C320 314 291 321 262 330.8C233 340.7 204 353.3 174.8 354.3C145.7 355.3 116.3 344.7 87.2 334.8C58 325 29 316 14.5 311.5L0 307Z" fill="#b3cdcf"></path><path d="M0 541L14.5 541C29 541 58 541 87.2 541C116.3 541 145.7 541 174.8 541C204 541 233 541 262 541C291 541 320 541 349 541C378 541 407 541 436.2 541C465.3 541 494.7 541 523.8 541C553 541 582 541 611 541C640 541 669 541 698 541C727 541 756 541 785.2 541C814.3 541 843.7 541 872.8 541C902 541 931 541 945.5 541L960 541L960 474L945.5 473.2C931 472.3 902 470.7 872.8 468C843.7 465.3 814.3 461.7 785.2 455.3C756 449 727 440 698 436.3C669 432.7 640 434.3 611 438.8C582 443.3 553 450.7 523.8 458C494.7 465.3 465.3 472.7 436.2 468.2C407 463.7 378 447.3 349 442.8C320 438.3 291 445.7 262 451C233 456.3 204 459.7 174.8 464.2C145.7 468.7 116.3 474.3 87.2 470.8C58 467.3 29 454.7 14.5 448.3L0 442Z" fill="#82b4b9"></path></svg>